solid vcg
  facet normal  0.000000e+00  0.000000e+00  1.000000e+00
    outer loop
      vertex  -2.000000e-01  3.500000e-01  1.000000e+00
      vertex  -1.800000e+00  3.500000e-01  1.000000e+00
      vertex  -2.000000e-01 -3.500000e-01  1.000000e+00
    endloop
  endfacet
  facet normal  0.000000e+00  0.000000e+00  1.000000e+00
    outer loop
      vertex  -1.800000e+00 -3.500000e-01  1.000000e+00
      vertex  -2.000000e-01 -3.500000e-01  1.000000e+00
      vertex  -1.800000e+00  3.500000e-01  1.000000e+00
    endloop
  endfacet
  facet normal  1.000000e+00  0.000000e+00  0.000000e+00
    outer loop
      vertex  -2.000000e-01  3.500000e-01  1.000000e+00
      vertex  -2.000000e-01 -3.500000e-01  1.000000e+00
      vertex  -2.000000e-01  3.500000e-01  2.235174e-08
    endloop
  endfacet
  facet normal  1.000000e+00  0.000000e+00  0.000000e+00
    outer loop
      vertex  -2.000000e-01 -3.500000e-01  2.235174e-08
      vertex  -2.000000e-01  3.500000e-01  2.235174e-08
      vertex  -2.000000e-01 -3.500000e-01  1.000000e+00
    endloop
  endfacet
  facet normal  0.000000e+00  1.000000e+00  0.000000e+00
    outer loop
      vertex  -2.000000e-01  3.500000e-01  1.000000e+00
      vertex  -2.000000e-01  3.500000e-01  2.235174e-08
      vertex  -1.800000e+00  3.500000e-01  1.000000e+00
    endloop
  endfacet
  facet normal  0.000000e+00  1.000000e+00  0.000000e+00
    outer loop
      vertex  -1.800000e+00  3.500000e-01  2.235174e-08
      vertex  -1.800000e+00  3.500000e-01  1.000000e+00
      vertex  -2.000000e-01  3.500000e-01  2.235174e-08
    endloop
  endfacet
  facet normal  0.000000e+00 -1.000000e+00  0.000000e+00
    outer loop
      vertex  -1.800000e+00 -3.500000e-01  2.235174e-08
      vertex  -2.000000e-01 -3.500000e-01  2.235174e-08
      vertex  -1.800000e+00 -3.500000e-01  1.000000e+00
    endloop
  endfacet
  facet normal -0.000000e+00 -1.000000e+00 -0.000000e+00
    outer loop
      vertex  -2.000000e-01 -3.500000e-01  1.000000e+00
      vertex  -1.800000e+00 -3.500000e-01  1.000000e+00
      vertex  -2.000000e-01 -3.500000e-01  2.235174e-08
    endloop
  endfacet
  facet normal -1.000000e+00  0.000000e+00  0.000000e+00
    outer loop
      vertex  -1.800000e+00 -3.500000e-01  2.235174e-08
      vertex  -1.800000e+00 -3.500000e-01  1.000000e+00
      vertex  -1.800000e+00  3.500000e-01  2.235174e-08
    endloop
  endfacet
  facet normal -1.000000e+00 -0.000000e+00 -0.000000e+00
    outer loop
      vertex  -1.800000e+00  3.500000e-01  1.000000e+00
      vertex  -1.800000e+00  3.500000e-01  2.235174e-08
      vertex  -1.800000e+00 -3.500000e-01  1.000000e+00
    endloop
  endfacet
  facet normal  0.000000e+00  0.000000e+00  1.000000e+00
    outer loop
      vertex   2.000000e-01  1.450000e+00  1.500000e+00
      vertex  -2.000000e-01  1.450000e+00  1.500000e+00
      vertex   2.000000e-01  3.500000e-01  1.500000e+00
    endloop
  endfacet
  facet normal  0.000000e+00  0.000000e+00  1.000000e+00
    outer loop
      vertex  -2.000000e-01  3.500000e-01  1.500000e+00
      vertex   2.000000e-01  3.500000e-01  1.500000e+00
      vertex  -2.000000e-01  1.450000e+00  1.500000e+00
    endloop
  endfacet
  facet normal  1.000000e+00  0.000000e+00  0.000000e+00
    outer loop
      vertex   2.000000e-01  1.450000e+00  1.500000e+00
      vertex   2.000000e-01  3.500000e-01  1.500000e+00
      vertex   2.000000e-01  1.450000e+00  0.000000e+00
    endloop
  endfacet
  facet normal  1.000000e+00  0.000000e+00  0.000000e+00
    outer loop
      vertex   2.000000e-01  3.500000e-01  0.000000e+00
      vertex   2.000000e-01  1.450000e+00  0.000000e+00
      vertex   2.000000e-01  3.500000e-01  1.500000e+00
    endloop
  endfacet
  facet normal  0.000000e+00  1.000000e+00  0.000000e+00
    outer loop
      vertex   2.000000e-01  1.450000e+00  1.500000e+00
      vertex   2.000000e-01  1.450000e+00  0.000000e+00
      vertex  -2.000000e-01  1.450000e+00  1.500000e+00
    endloop
  endfacet
  facet normal  0.000000e+00  1.000000e+00  0.000000e+00
    outer loop
      vertex  -2.000000e-01  1.450000e+00  0.000000e+00
      vertex  -2.000000e-01  1.450000e+00  1.500000e+00
      vertex   2.000000e-01  1.450000e+00  0.000000e+00
    endloop
  endfacet
  facet normal  0.000000e+00 -1.000000e+00  0.000000e+00
    outer loop
      vertex  -2.000000e-01  3.500000e-01  0.000000e+00
      vertex   2.000000e-01  3.500000e-01  0.000000e+00
      vertex  -2.000000e-01  3.500000e-01  1.500000e+00
    endloop
  endfacet
  facet normal -0.000000e+00 -1.000000e+00 -0.000000e+00
    outer loop
      vertex   2.000000e-01  3.500000e-01  1.500000e+00
      vertex  -2.000000e-01  3.500000e-01  1.500000e+00
      vertex   2.000000e-01  3.500000e-01  0.000000e+00
    endloop
  endfacet
  facet normal -1.000000e+00  0.000000e+00  0.000000e+00
    outer loop
      vertex  -2.000000e-01  3.500000e-01  0.000000e+00
      vertex  -2.000000e-01  3.500000e-01  1.500000e+00
      vertex  -2.000000e-01  1.450000e+00  0.000000e+00
    endloop
  endfacet
  facet normal -1.000000e+00 -0.000000e+00 -0.000000e+00
    outer loop
      vertex  -2.000000e-01  1.450000e+00  1.500000e+00
      vertex  -2.000000e-01  1.450000e+00  0.000000e+00
      vertex  -2.000000e-01  3.500000e-01  1.500000e+00
    endloop
  endfacet
endsolid vcg
