solid vcg
  facet normal -0.000000e+00  0.000000e+00  1.000000e+00
    outer loop
      vertex  -1.500001e-01  3.000000e+00  9.999999e-01
      vertex  -1.500001e-01  1.400000e+00  9.999999e-01
      vertex   5.499999e-01  3.000000e+00  9.999999e-01
    endloop
  endfacet
  facet normal  0.000000e+00  0.000000e+00  1.000000e+00
    outer loop
      vertex   5.500000e-01  1.400000e+00  9.999999e-01
      vertex   5.499999e-01  3.000000e+00  9.999999e-01
      vertex  -1.500001e-01  1.400000e+00  9.999999e-01
    endloop
  endfacet
  facet normal -0.000000e+00  1.000000e+00  0.000000e+00
    outer loop
      vertex  -1.500001e-01  3.000000e+00  9.999999e-01
      vertex   5.499999e-01  3.000000e+00  9.999999e-01
      vertex  -1.500001e-01  3.000000e+00  2.235174e-08
    endloop
  endfacet
  facet normal  0.000000e+00  1.000000e+00 -0.000000e+00
    outer loop
      vertex   5.499999e-01  3.000000e+00  2.235174e-08
      vertex  -1.500001e-01  3.000000e+00  2.235174e-08
      vertex   5.499999e-01  3.000000e+00  9.999999e-01
    endloop
  endfacet
  facet normal -1.000000e+00 -4.656613e-08 -0.000000e+00
    outer loop
      vertex  -1.500001e-01  3.000000e+00  9.999999e-01
      vertex  -1.500001e-01  3.000000e+00  2.235174e-08
      vertex  -1.500001e-01  1.400000e+00  9.999999e-01
    endloop
  endfacet
  facet normal -1.000000e+00 -4.656613e-08  0.000000e+00
    outer loop
      vertex  -1.500001e-01  1.400000e+00  2.235174e-08
      vertex  -1.500001e-01  1.400000e+00  9.999999e-01
      vertex  -1.500001e-01  3.000000e+00  2.235174e-08
    endloop
  endfacet
  facet normal  1.000000e+00  3.725291e-08 -0.000000e+00
    outer loop
      vertex   5.500000e-01  1.400000e+00  2.235174e-08
      vertex   5.499999e-01  3.000000e+00  2.235174e-08
      vertex   5.500000e-01  1.400000e+00  9.999999e-01
    endloop
  endfacet
  facet normal  1.000000e+00  3.725291e-08  0.000000e+00
    outer loop
      vertex   5.499999e-01  3.000000e+00  9.999999e-01
      vertex   5.500000e-01  1.400000e+00  9.999999e-01
      vertex   5.499999e-01  3.000000e+00  2.235174e-08
    endloop
  endfacet
  facet normal  0.000000e+00 -1.000000e+00  0.000000e+00
    outer loop
      vertex   5.500000e-01  1.400000e+00  2.235174e-08
      vertex   5.500000e-01  1.400000e+00  9.999999e-01
      vertex  -1.500001e-01  1.400000e+00  2.235174e-08
    endloop
  endfacet
  facet normal  0.000000e+00 -1.000000e+00  0.000000e+00
    outer loop
      vertex  -1.500001e-01  1.400000e+00  9.999999e-01
      vertex  -1.500001e-01  1.400000e+00  2.235174e-08
      vertex   5.500000e-01  1.400000e+00  9.999999e-01
    endloop
  endfacet
  facet normal -0.000000e+00  0.000000e+00  1.000000e+00
    outer loop
      vertex  -1.250000e+00  3.400000e+00  1.500000e+00
      vertex  -1.250000e+00  3.000000e+00  1.500000e+00
      vertex  -1.500001e-01  3.400000e+00  1.500000e+00
    endloop
  endfacet
  facet normal  0.000000e+00  0.000000e+00  1.000000e+00
    outer loop
      vertex  -1.500001e-01  3.000000e+00  1.500000e+00
      vertex  -1.500001e-01  3.400000e+00  1.500000e+00
      vertex  -1.250000e+00  3.000000e+00  1.500000e+00
    endloop
  endfacet
  facet normal -0.000000e+00  1.000000e+00  0.000000e+00
    outer loop
      vertex  -1.250000e+00  3.400000e+00  1.500000e+00
      vertex  -1.500001e-01  3.400000e+00  1.500000e+00
      vertex  -1.250000e+00  3.400000e+00  0.000000e+00
    endloop
  endfacet
  facet normal  0.000000e+00  1.000000e+00 -0.000000e+00
    outer loop
      vertex  -1.500001e-01  3.400000e+00  0.000000e+00
      vertex  -1.250000e+00  3.400000e+00  0.000000e+00
      vertex  -1.500001e-01  3.400000e+00  1.500000e+00
    endloop
  endfacet
  facet normal -1.000000e+00 -0.000000e+00 -0.000000e+00
    outer loop
      vertex  -1.250000e+00  3.400000e+00  1.500000e+00
      vertex  -1.250000e+00  3.400000e+00  0.000000e+00
      vertex  -1.250000e+00  3.000000e+00  1.500000e+00
    endloop
  endfacet
  facet normal -1.000000e+00  0.000000e+00  0.000000e+00
    outer loop
      vertex  -1.250000e+00  3.000000e+00  0.000000e+00
      vertex  -1.250000e+00  3.000000e+00  1.500000e+00
      vertex  -1.250000e+00  3.400000e+00  0.000000e+00
    endloop
  endfacet
  facet normal  1.000000e+00  3.725290e-08 -0.000000e+00
    outer loop
      vertex  -1.500001e-01  3.000000e+00  0.000000e+00
      vertex  -1.500001e-01  3.400000e+00  0.000000e+00
      vertex  -1.500001e-01  3.000000e+00  1.500000e+00
    endloop
  endfacet
  facet normal  1.000000e+00  3.725290e-08  0.000000e+00
    outer loop
      vertex  -1.500001e-01  3.400000e+00  1.500000e+00
      vertex  -1.500001e-01  3.000000e+00  1.500000e+00
      vertex  -1.500001e-01  3.400000e+00  0.000000e+00
    endloop
  endfacet
  facet normal  0.000000e+00 -1.000000e+00  0.000000e+00
    outer loop
      vertex  -1.500001e-01  3.000000e+00  0.000000e+00
      vertex  -1.500001e-01  3.000000e+00  1.500000e+00
      vertex  -1.250000e+00  3.000000e+00  0.000000e+00
    endloop
  endfacet
  facet normal  0.000000e+00 -1.000000e+00  0.000000e+00
    outer loop
      vertex  -1.250000e+00  3.000000e+00  1.500000e+00
      vertex  -1.250000e+00  3.000000e+00  0.000000e+00
      vertex  -1.500001e-01  3.000000e+00  1.500000e+00
    endloop
  endfacet
endsolid vcg
