solid vcg
  facet normal  0.000000e+00  0.000000e+00  1.000000e+00
    outer loop
      vertex   3.000000e+00  1.500000e-01  1.000000e+00
      vertex   1.400000e+00  1.500000e-01  1.000000e+00
      vertex   3.000000e+00 -5.500000e-01  1.000000e+00
    endloop
  endfacet
  facet normal  0.000000e+00  0.000000e+00  1.000000e+00
    outer loop
      vertex   1.400000e+00 -5.500000e-01  1.000000e+00
      vertex   3.000000e+00 -5.500000e-01  1.000000e+00
      vertex   1.400000e+00  1.500000e-01  1.000000e+00
    endloop
  endfacet
  facet normal  1.000000e+00  0.000000e+00  0.000000e+00
    outer loop
      vertex   3.000000e+00  1.500000e-01  1.000000e+00
      vertex   3.000000e+00 -5.500000e-01  1.000000e+00
      vertex   3.000000e+00  1.500000e-01  2.235174e-08
    endloop
  endfacet
  facet normal  1.000000e+00  0.000000e+00  0.000000e+00
    outer loop
      vertex   3.000000e+00 -5.500000e-01  2.235174e-08
      vertex   3.000000e+00  1.500000e-01  2.235174e-08
      vertex   3.000000e+00 -5.500000e-01  1.000000e+00
    endloop
  endfacet
  facet normal  0.000000e+00  1.000000e+00  0.000000e+00
    outer loop
      vertex   3.000000e+00  1.500000e-01  1.000000e+00
      vertex   3.000000e+00  1.500000e-01  2.235174e-08
      vertex   1.400000e+00  1.500000e-01  1.000000e+00
    endloop
  endfacet
  facet normal  0.000000e+00  1.000000e+00  0.000000e+00
    outer loop
      vertex   1.400000e+00  1.500000e-01  2.235174e-08
      vertex   1.400000e+00  1.500000e-01  1.000000e+00
      vertex   3.000000e+00  1.500000e-01  2.235174e-08
    endloop
  endfacet
  facet normal  0.000000e+00 -1.000000e+00  0.000000e+00
    outer loop
      vertex   1.400000e+00 -5.500000e-01  2.235174e-08
      vertex   3.000000e+00 -5.500000e-01  2.235174e-08
      vertex   1.400000e+00 -5.500000e-01  1.000000e+00
    endloop
  endfacet
  facet normal -0.000000e+00 -1.000000e+00 -0.000000e+00
    outer loop
      vertex   3.000000e+00 -5.500000e-01  1.000000e+00
      vertex   1.400000e+00 -5.500000e-01  1.000000e+00
      vertex   3.000000e+00 -5.500000e-01  2.235174e-08
    endloop
  endfacet
  facet normal -1.000000e+00  0.000000e+00  0.000000e+00
    outer loop
      vertex   1.400000e+00 -5.500000e-01  2.235174e-08
      vertex   1.400000e+00 -5.500000e-01  1.000000e+00
      vertex   1.400000e+00  1.500000e-01  2.235174e-08
    endloop
  endfacet
  facet normal -1.000000e+00 -0.000000e+00 -0.000000e+00
    outer loop
      vertex   1.400000e+00  1.500000e-01  1.000000e+00
      vertex   1.400000e+00  1.500000e-01  2.235174e-08
      vertex   1.400000e+00 -5.500000e-01  1.000000e+00
    endloop
  endfacet
  facet normal  0.000000e+00  0.000000e+00  1.000000e+00
    outer loop
      vertex   3.400000e+00  1.250000e+00  1.500000e+00
      vertex   3.000000e+00  1.250000e+00  1.500000e+00
      vertex   3.400000e+00  1.500000e-01  1.500000e+00
    endloop
  endfacet
  facet normal  0.000000e+00  0.000000e+00  1.000000e+00
    outer loop
      vertex   3.000000e+00  1.500000e-01  1.500000e+00
      vertex   3.400000e+00  1.500000e-01  1.500000e+00
      vertex   3.000000e+00  1.250000e+00  1.500000e+00
    endloop
  endfacet
  facet normal  1.000000e+00  0.000000e+00  0.000000e+00
    outer loop
      vertex   3.400000e+00  1.250000e+00  1.500000e+00
      vertex   3.400000e+00  1.500000e-01  1.500000e+00
      vertex   3.400000e+00  1.250000e+00  0.000000e+00
    endloop
  endfacet
  facet normal  1.000000e+00  0.000000e+00  0.000000e+00
    outer loop
      vertex   3.400000e+00  1.500000e-01  0.000000e+00
      vertex   3.400000e+00  1.250000e+00  0.000000e+00
      vertex   3.400000e+00  1.500000e-01  1.500000e+00
    endloop
  endfacet
  facet normal  0.000000e+00  1.000000e+00  0.000000e+00
    outer loop
      vertex   3.400000e+00  1.250000e+00  1.500000e+00
      vertex   3.400000e+00  1.250000e+00  0.000000e+00
      vertex   3.000000e+00  1.250000e+00  1.500000e+00
    endloop
  endfacet
  facet normal  0.000000e+00  1.000000e+00  0.000000e+00
    outer loop
      vertex   3.000000e+00  1.250000e+00  0.000000e+00
      vertex   3.000000e+00  1.250000e+00  1.500000e+00
      vertex   3.400000e+00  1.250000e+00  0.000000e+00
    endloop
  endfacet
  facet normal  0.000000e+00 -1.000000e+00  0.000000e+00
    outer loop
      vertex   3.000000e+00  1.500000e-01  0.000000e+00
      vertex   3.400000e+00  1.500000e-01  0.000000e+00
      vertex   3.000000e+00  1.500000e-01  1.500000e+00
    endloop
  endfacet
  facet normal -0.000000e+00 -1.000000e+00 -0.000000e+00
    outer loop
      vertex   3.400000e+00  1.500000e-01  1.500000e+00
      vertex   3.000000e+00  1.500000e-01  1.500000e+00
      vertex   3.400000e+00  1.500000e-01  0.000000e+00
    endloop
  endfacet
  facet normal -1.000000e+00  0.000000e+00  0.000000e+00
    outer loop
      vertex   3.000000e+00  1.500000e-01  0.000000e+00
      vertex   3.000000e+00  1.500000e-01  1.500000e+00
      vertex   3.000000e+00  1.250000e+00  0.000000e+00
    endloop
  endfacet
  facet normal -1.000000e+00 -0.000000e+00 -0.000000e+00
    outer loop
      vertex   3.000000e+00  1.250000e+00  1.500000e+00
      vertex   3.000000e+00  1.250000e+00  0.000000e+00
      vertex   3.000000e+00  1.500000e-01  1.500000e+00
    endloop
  endfacet
endsolid vcg
